<svg width="227" height="55" viewBox="0 0 227 55" fill="none" xmlns="http://www.w3.org/2000/svg">
<path id="fill" fill-rule="evenodd" clip-rule="evenodd" d="M102.602 0H99.4722V55H102.602V0ZM197.932 22.4892C197.784 18.446 194.597 16.085 190.081 16.085C184.946 16.085 182.438 19.0658 182.438 22.5482C182.438 26.7684 185.684 27.8899 189.639 28.8638C193.003 29.6606 194.921 30.2509 194.921 32.4643C194.921 34.7663 193.062 35.7106 190.524 35.7106C187.75 35.7106 185.655 34.2055 185.507 31.8445L181.936 32.0511C182.084 36.3599 185.684 38.7504 190.524 38.7504C194.892 38.7504 198.492 36.7731 198.492 32.2282C198.492 28.3326 195.571 27.0045 190.937 25.8831C187.75 25.1453 186.038 24.6436 186.038 22.4302C186.038 20.5414 187.455 19.1248 190.14 19.1248C192.619 19.1248 194.243 20.4824 194.361 22.6958L197.932 22.4892ZM140.478 38.4553H137.527L132.126 22.8433L126.755 38.4553H123.774L116.071 16.3802H119.849L125.309 32.2282L130.68 16.3802H133.572L138.973 32.2282L144.403 16.3802H148.181L140.478 38.4553ZM172.088 19.4789H161.73V25.5585H170.79V28.5982H161.73V35.327H172.088V38.4553H158.218V16.3802H172.088V19.4789ZM226.711 19.4789H218.861V38.4553H215.349V19.4789H207.499V16.3802H226.711V19.4789ZM17.4122 38.4553H13.9002V28.6277H3.51195V38.4553H0V16.3802H3.51195V25.4994H13.9002V16.3802H17.4122V38.4553ZM32.9308 38.4553H29.4188V16.3802H32.9308V38.4553ZM58.9054 35.327H48.4581V16.3802H44.9462V38.4553H58.9054V35.327ZM72.9774 35.327H83.4248V38.4553H69.4655V16.3802H72.9774V35.327Z" fill="rgb(255, 255, 255)"></path>
</svg>