<svg width="121" height="28" viewBox="0 0 121 28" fill="none" xmlns="http://www.w3.org/2000/svg">
<path d="M29.2611 20.3308C26.4301 25.8239 21.518 28 15.0848 28C4.83812 27.9894 0 21.852 0 14.1828C0 5.09813 6.14801 0.26001 15.0531 0.26001C20.7258 0.26001 26.504 2.43611 28.8703 7.82354L26.1026 9.09117C24.254 4.77066 20.1448 2.94316 15.0848 2.94316C7.52127 2.95372 3.27471 7.0524 3.27471 14.5842C3.27471 20.6583 7.38395 25.1584 15.3806 25.1584C20.6096 25.1584 24.254 22.9823 26.4301 18.947L29.2611 20.3308Z" fill="rgb(145, 145, 145)"></path>
<path d="M47.8004 25.1584C54.2337 25.1584 60.0119 21.7463 60.0119 13.7075C60.0119 7.82354 55.4696 2.94316 47.8004 2.94316C40.1313 2.94316 35.5889 7.81297 35.5889 13.7075C35.5889 21.7463 41.2933 25.1584 47.8004 25.1584ZM47.8004 0.26001C56.7795 0.26001 63.2866 5.48899 63.2866 14.2885C63.2866 23.6689 55.4379 27.9894 47.8004 27.9894C40.163 27.9894 32.3142 23.6689 32.3142 14.2885C32.3142 5.48899 38.8214 0.26001 47.8004 0.26001Z" fill="rgb(218, 41, 28)"></path>
<path d="M69.8678 12.799H81.213C85.8293 12.799 89.2836 12.144 89.2836 8.25661C89.2836 4.36921 85.8293 3.74596 81.213 3.74596H69.8678V12.799ZM66.667 0.914917H81.9314C86.1462 0.914917 92.3259 1.82339 92.3259 8.29887C92.3259 13.8236 87.2026 15.4187 84.0018 15.5666L92.7274 27.345H88.766L80.2623 15.6406H69.8678V27.345H66.667V0.914917Z" fill="rgb(145, 145, 145)"></path>
<path d="M96.6462 0.914917H120.203V3.74596H99.847V12.1863H116.865V15.0173H99.847V24.5034H120.636V27.3344H96.6462V0.914917Z" fill="rgb(145, 145, 145)"></path>
</svg>