<svg width="251" height="45" viewBox="0 0 251 45" fill="none" xmlns="http://www.w3.org/2000/svg">
<path d="M58 15H64" stroke="white" stroke-width="1.3"/>
<path d="M0 40.5H23.5L40 5V1H0V40.5Z" fill="url(#paint0_linear_1_139)"/>
<path d="M39.5 4.88948L23.181 40H0.5V1.5H39.5V4.88948Z" stroke="white" stroke-opacity="0.2"/>
<path d="M39.5 40.5V12L26 40.5H39.5Z" fill="url(#paint1_linear_1_139)" stroke="white" stroke-opacity="0.2"/>
<path d="M51 24L61 2L71 24" stroke="white" stroke-width="1.3"/>
<path d="M81 1.35H80.35V2.65H81V1.35ZM100 2L100.493 2.42396L100 1.35V2ZM81.5 23.5L81.0073 23.076L81.5 24.15V23.5ZM81 2.65H100V1.35H81V2.65ZM99.5073 1.57604L81.0073 23.076L81.9927 23.924L100.493 2.42396L99.5073 1.57604ZM81.5 24.15H100.5V22.85H81.5V24.15Z" fill="white"/>
<path d="M115.5 2V24" stroke="white" stroke-width="1.3"/>
<path d="M130.5 1.5L131.006 1.09158L129.85 1.5H130.5ZM141 14.5L140.494 14.9084L140.988 15.5201L141.496 14.9199L141 14.5ZM152 1.5H152.65L151.504 1.08014L152 1.5ZM131.15 24V1.5H129.85V24H131.15ZM129.994 1.90842L140.494 14.9084L141.506 14.0916L131.006 1.09158L129.994 1.90842ZM141.496 14.9199L152.496 1.91986L151.504 1.08014L140.504 14.0801L141.496 14.9199ZM151.35 1.5V24H152.65V1.5H151.35Z" fill="white"/>
<path d="M166.5 1V23.5H185.5V1" stroke="white" stroke-width="1.3"/>
<path d="M207 24V2H217H197" stroke="white" stroke-width="1.3"/>
<path d="M229 1V24M232 12.5H244.5M247.5 1V24" stroke="white" stroke-width="1.3"/>
<path opacity="0.6" d="M50.274 40V30.76H53.018C54.5487 30.76 55.7667 31.1893 56.672 32.048C57.5867 32.8973 58.044 34.0033 58.044 35.366C58.044 36.7193 57.5867 37.83 56.672 38.698C55.7573 39.566 54.5393 40 53.018 40H50.274ZM51.366 39.02H53.004C54.1987 39.02 55.146 38.6793 55.846 37.998C56.5553 37.3167 56.91 36.4393 56.91 35.366C56.91 34.2833 56.56 33.4107 55.86 32.748C55.16 32.076 54.208 31.74 53.004 31.74H51.366V39.02ZM61.2547 40V30.76H67.1767V31.74H62.3467V34.568H66.0427V35.548H62.3467V39.02H67.3447V40H61.2547ZM76.8144 30.76H78.0184L74.0144 40.154H73.6084L69.6044 30.76H70.8084L73.8184 38.012L76.8144 30.76ZM80.9876 40V30.76H86.9096V31.74H82.0796V34.568H85.7756V35.548H82.0796V39.02H87.0776V40H80.9876ZM90.1773 40V30.76H91.2693V39.02H95.6513V40H90.1773ZM97.7122 35.38C97.6842 34.064 98.1462 32.9347 99.0982 31.992C100.05 31.0493 101.184 30.5873 102.5 30.606C103.807 30.5873 104.941 31.0493 105.902 31.992C106.864 32.9347 107.33 34.064 107.302 35.38C107.33 36.696 106.864 37.8253 105.902 38.768C104.941 39.7107 103.807 40.1727 102.5 40.154C101.194 40.182 100.06 39.72 99.0982 38.768C98.1462 37.816 97.6842 36.6867 97.7122 35.38ZM106.168 35.366C106.187 34.3207 105.837 33.4293 105.118 32.692C104.4 31.9547 103.532 31.5953 102.514 31.614C101.469 31.614 100.596 31.9733 99.8962 32.692C99.1962 33.4013 98.8462 34.2927 98.8462 35.366C98.8462 36.4393 99.1962 37.34 99.8962 38.068C100.596 38.7867 101.469 39.146 102.514 39.146C103.532 39.1647 104.4 38.8053 105.118 38.068C105.837 37.3213 106.187 36.4207 106.168 35.366ZM110.512 40V30.76H113.76C114.646 30.76 115.36 31.012 115.902 31.516C116.443 32.0107 116.714 32.65 116.714 33.434C116.714 34.2273 116.443 34.876 115.902 35.38C115.36 35.884 114.646 36.136 113.76 36.136H111.604V40H110.512ZM111.604 35.156H113.732C114.31 35.156 114.763 35.002 115.09 34.694C115.416 34.386 115.58 33.9707 115.58 33.448C115.58 32.9347 115.416 32.524 115.09 32.216C114.763 31.8987 114.31 31.74 113.732 31.74H111.604V35.156ZM127.917 30.606H128.295V40H127.203V33.378L124.249 37.382H123.857L120.889 33.35V40H119.797V30.606H120.189L124.039 35.94L127.917 30.606ZM132.104 40V30.76H138.026V31.74H133.196V34.568H136.892V35.548H133.196V39.02H138.194V40H132.104ZM147.566 30.76H148.658V40.154H148.266L142.386 33.07V40H141.294V30.606H141.686L147.566 37.704V30.76ZM154.706 40V31.74H151.458V30.76H159.06V31.74H155.798V40H154.706ZM165.745 35.38C165.726 34.0547 166.188 32.9253 167.131 31.992C168.083 31.0493 169.222 30.5873 170.547 30.606C171.322 30.606 172.036 30.774 172.689 31.11C173.342 31.4367 173.884 31.8987 174.313 32.496L173.487 33.14C172.731 32.1227 171.751 31.614 170.547 31.614C169.502 31.5953 168.624 31.9547 167.915 32.692C167.206 33.4293 166.86 34.3207 166.879 35.366C166.86 36.43 167.21 37.3353 167.929 38.082C168.657 38.8287 169.548 39.1927 170.603 39.174C171.266 39.174 171.863 39.0293 172.395 38.74C172.936 38.4413 173.366 38.0353 173.683 37.522V36.276H170.533V35.296H174.775V37.76C174.364 38.488 173.781 39.0713 173.025 39.51C172.288 39.9393 171.462 40.154 170.547 40.154C169.222 40.1727 168.083 39.7153 167.131 38.782C166.188 37.8393 165.726 36.7053 165.745 35.38ZM185.262 40H183.988L181.118 36.122H179.144V40H178.052V30.76H181.3C182.187 30.76 182.901 31.012 183.442 31.516C183.984 32.0107 184.254 32.65 184.254 33.434C184.254 34.0593 184.082 34.6007 183.736 35.058C183.391 35.506 182.915 35.8187 182.308 35.996L185.262 40ZM179.144 31.74V35.142H181.258C181.846 35.142 182.304 34.9927 182.63 34.694C182.957 34.386 183.12 33.9707 183.12 33.448C183.12 32.9347 182.952 32.524 182.616 32.216C182.29 31.8987 181.837 31.74 181.258 31.74H179.144ZM187.214 35.38C187.186 34.064 187.648 32.9347 188.6 31.992C189.552 31.0493 190.686 30.5873 192.002 30.606C193.309 30.5873 194.443 31.0493 195.404 31.992C196.366 32.9347 196.832 34.064 196.804 35.38C196.832 36.696 196.366 37.8253 195.404 38.768C194.443 39.7107 193.309 40.1727 192.002 40.154C190.696 40.182 189.562 39.72 188.6 38.768C187.648 37.816 187.186 36.6867 187.214 35.38ZM195.67 35.366C195.689 34.3207 195.339 33.4293 194.62 32.692C193.902 31.9547 193.034 31.5953 192.016 31.614C190.971 31.614 190.098 31.9733 189.398 32.692C188.698 33.4013 188.348 34.2927 188.348 35.366C188.348 36.4393 188.698 37.34 189.398 38.068C190.098 38.7867 190.971 39.146 192.016 39.146C193.034 39.1647 193.902 38.8053 194.62 38.068C195.339 37.3213 195.689 36.4207 195.67 35.366ZM199.888 36.332V30.76H200.98V36.402C200.98 37.2793 201.213 37.956 201.68 38.432C202.156 38.908 202.786 39.146 203.57 39.146C204.345 39.146 204.965 38.908 205.432 38.432C205.899 37.956 206.132 37.2793 206.132 36.402V30.76H207.224V36.332C207.224 37.5173 206.883 38.4507 206.202 39.132C205.53 39.8133 204.653 40.154 203.57 40.154C202.469 40.154 201.577 39.8133 200.896 39.132C200.224 38.4507 199.888 37.5173 199.888 36.332ZM210.926 40V30.76H214.174C215.061 30.76 215.775 31.012 216.316 31.516C216.858 32.0107 217.128 32.65 217.128 33.434C217.128 34.2273 216.858 34.876 216.316 35.38C215.775 35.884 215.061 36.136 214.174 36.136H212.018V40H210.926ZM212.018 35.156H214.146C214.725 35.156 215.178 35.002 215.504 34.694C215.831 34.386 215.994 33.9707 215.994 33.448C215.994 32.9347 215.831 32.524 215.504 32.216C215.178 31.8987 214.725 31.74 214.146 31.74H212.018V35.156ZM224.972 40V30.76H226.064V39.02H230.446V40H224.972ZM233.314 40V30.76H234.406V39.02H238.788V40H233.314ZM240.849 35.38C240.821 34.064 241.283 32.9347 242.235 31.992C243.196 31.0493 244.335 30.5873 245.651 30.606C246.463 30.606 247.205 30.7833 247.877 31.138C248.558 31.4927 249.095 31.978 249.487 32.594L248.675 33.238C247.919 32.1553 246.915 31.614 245.665 31.614C244.619 31.614 243.742 31.9733 243.033 32.692C242.333 33.4107 241.983 34.3067 241.983 35.38C241.983 36.4533 242.333 37.3493 243.033 38.068C243.742 38.7867 244.619 39.146 245.665 39.146C246.915 39.146 247.919 38.6047 248.675 37.522L249.487 38.166C249.095 38.782 248.558 39.2673 247.877 39.622C247.205 39.9767 246.463 40.154 245.651 40.154C244.335 40.1727 243.196 39.7107 242.235 38.768C241.283 37.8253 240.821 36.696 240.849 35.38Z" fill="white"/>
<defs>
<linearGradient id="paint0_linear_1_139" x1="0" y1="1" x2="17" y2="28" gradientUnits="userSpaceOnUse">
<stop stop-color="#B5DDFF"/>
<stop offset="1" stop-color="#003978"/>
</linearGradient>
<linearGradient id="paint1_linear_1_139" x1="38" y1="14.5" x2="32.75" y2="40.5" gradientUnits="userSpaceOnUse">
<stop stop-color="#58595B"/>
<stop offset="1" stop-color="#3A3A3C"/>
</linearGradient>
</defs>
</svg>
