<svg id="Layer_1" data-name="Layer 1" xmlns="http://www.w3.org/2000/svg" viewBox="0 0 213.02 60.17"><defs><style>.cls-1{fill:#6b6662;}.cls-2{fill:#d29135;}</style></defs><title>logo</title><path class="cls-1" d="M98.77,18.62c-.47-1.84-1.16-5.48-5.09-5.48a3.43,3.43,0,0,0-3.61,3.61c0,5.56,11.55,5.2,11.55,12.92,0,5.13-4.55,7-8.88,7a13.36,13.36,0,0,1-6.36-1.44,16.82,16.82,0,0,1-1-6.79l1.7-.36c.51,2.16,1.7,7.22,6.32,7.22a3.68,3.68,0,0,0,3.79-4c0-6.1-11.19-5.63-11.19-13,0-4.58,3.39-6.5,8-6.5a10.7,10.7,0,0,1,5.67,1.34,34.75,34.75,0,0,1,.4,5.52Z" transform="translate(-85.33 -10.14)"/><path class="cls-1" d="M104,24.19c0-1.27,0-2.89-1.08-2.89a4.25,4.25,0,0,0-1.16.21v-1a23,23,0,0,1,6.5-1.3V21.3a7.83,7.83,0,0,1,5.2-2.13c3,0,3.94,1.12,4.69,2.24a8.12,8.12,0,0,1,5.49-2.24c5.67,0,5.78,4.33,5.78,8.3v5.24c0,1.91.18,2.27,1.48,2.42l.76.07v.94h-8.81V35.2l.76-.07c1.3-.15,1.48-.51,1.48-2.42V27.58c0-2.64,0-6.32-3.43-6.32a3.79,3.79,0,0,0-3,1.34,8.12,8.12,0,0,1,.22,1.84v8.27c0,1.91.18,2.27,1.48,2.42l.76.07v.94h-8.82V35.2l.76-.07c1.3-.15,1.48-.51,1.48-2.42V26c0-1.7,0-4.58-3.21-4.73a4.06,4.06,0,0,0-3,1.48v10c0,1.91.18,2.27,1.48,2.42l.76.07v.94h-8.74V35.2l.76-.07c1.23-.15,1.41-.51,1.41-2.42Z" transform="translate(-85.33 -10.14)"/><path class="cls-1" d="M131.48,35.2l.76-.07c1.3-.15,1.48-.51,1.48-2.42V24.19c0-1.27,0-2.89-1.08-2.89a4.25,4.25,0,0,0-1.16.21v-1a23.44,23.44,0,0,1,6.57-1.3V32.71c0,1.91.18,2.27,1.48,2.42l.76.07v.94h-8.81Zm1.62-21.59a2.49,2.49,0,0,1,2.53-2.5,2.53,2.53,0,0,1,2.53,2.5,2.53,2.53,0,1,1-5.06,0Z" transform="translate(-85.33 -10.14)"/><path class="cls-1" d="M152,35.24a11.47,11.47,0,0,1-5.29,1.44c-4.15,0-4.15-3.65-4.15-6.25v-9.1c-.82-.11-2-.18-2.72-.32v-.94c.68-.15,1.86-.22,2.72-.36V18.16a25.63,25.63,0,0,1,4.29-3.11l.43.25c-.11.62-.39,3.32-.43,4.41.72.07,3.11.25,3.9.36V21a37,37,0,0,1-3.9.32v6.83c0,3.65,0,6.39,3,6.43a5.52,5.52,0,0,0,1.86-.29Z" transform="translate(-85.33 -10.14)"/><path class="cls-1" d="M153.25,16.39c0-3.15,0-4.55-1.22-4.55-.44,0-.87.07-1,.07V11a30.39,30.39,0,0,1,6.57-.83V21.26a8.17,8.17,0,0,1,5.7-2.09c5.6,0,5.6,4.76,5.6,7.25v6.29c0,1.91.18,2.24,1.48,2.42l.76.07v.94h-8.81V35.2l.76-.07c1.3-.18,1.48-.51,1.48-2.42v-6.9c0-2.78-1.23-4.55-3.76-4.55a5,5,0,0,0-3.21,1.45v10c0,1.91.18,2.24,1.48,2.42l.76.07v.94H151V35.2l.75-.07c1.3-.18,1.48-.51,1.48-2.42Z" transform="translate(-85.33 -10.14)"/><path class="cls-1" d="M174.28,35.22l.86-.11c1.7-.36,1.7-.22,1.7-4.3V17.6c0-4,0-3.9-1.7-4.23l-.86-.11v-.94H185c1.73,0,7.73,0,7.73,5,0,3.86-3,5.2-5,5.77v.08c2.24.32,6.1,1.77,6.1,6.21,0,5.27-4.87,6.79-10.25,6.79h-9.39Zm7.25-12.39h1.34c2.75,0,5.2-.76,5.2-4.66,0-2.78-1.91-4.47-4.69-4.47a6.55,6.55,0,0,0-1.85.25Zm0,11.38a8.29,8.29,0,0,0,2.93.57c3.32,0,4.77-2.05,4.77-4.91s-1.77-5.67-6.14-5.67h-1.56Z" transform="translate(-85.33 -10.14)"/><path class="cls-1" d="M207.75,34.86a9.78,9.78,0,0,1-5.49,1.84c-5.6,0-5.85-3.25-5.85-7.26V24.2c0-1.26,0-2.89-1.08-2.89a4.31,4.31,0,0,0-1.16.22V20.48a24.26,24.26,0,0,1,6.57-1.3V29.33c0,2.85.55,5.27,4.08,5.27a5.18,5.18,0,0,0,2.71-.9V24.2c0-1.26,0-2.89-1.08-2.89a4.31,4.31,0,0,0-1.16.22V20.48a24.25,24.25,0,0,1,6.58-1.3V30c0,3,0,4.37,1.22,4.37a4.54,4.54,0,0,0,1,0l.08.94a42.4,42.4,0,0,1-5.46,1.45Z" transform="translate(-85.33 -10.14)"/><path class="cls-1" d="M225.22,24.67c-.1-1.19-.9-4.11-3.57-4.11a2.12,2.12,0,0,0-2,2.24c0,3.79,8.12,3.17,8.12,8.7,0,2.78-2,5.2-6.86,5.2a10.69,10.69,0,0,1-5-1.12,19.81,19.81,0,0,1-.65-5.13h1.44c.22,2,1.84,4.88,4.55,4.88a2.28,2.28,0,0,0,2.39-2.39c0-4.29-8.13-3.25-8.13-9,0-.28,0-4.73,6.43-4.73a9.39,9.39,0,0,1,4.33,1,18.43,18.43,0,0,1,.4,4.47Z" transform="translate(-85.33 -10.14)"/><path class="cls-1" d="M239.16,24.67c-.11-1.19-.9-4.11-3.57-4.11a2.12,2.12,0,0,0-2,2.24c0,3.79,8.13,3.17,8.13,8.7,0,2.78-2,5.2-6.86,5.2a10.69,10.69,0,0,1-5-1.12,19.38,19.38,0,0,1-.65-5.13h1.44c.22,2,1.84,4.88,4.55,4.88a2.27,2.27,0,0,0,2.38-2.39c0-4.29-8.12-3.25-8.12-9,0-.28,0-4.73,6.43-4.73a9.39,9.39,0,0,1,4.33,1,18.43,18.43,0,0,1,.4,4.47Z" transform="translate(-85.33 -10.14)"/><path class="cls-2" d="M172.46,67.31a37.67,37.67,0,0,0-4.94-3.9c-1.48,1-3.61,2.71-8.85,2.71-4.77,0-8.7-2.64-8.7-6.65s3.57-5.92,5.34-6.93a9.41,9.41,0,0,1-1.19-4c0-4.4,3-7.33,6.61-7.33,2.42,0,4.15,1.48,4.15,3.83,0,3.65-4,6-5.34,6.79,2.38,2.74,6.39,5.88,9.13,8.09a6.73,6.73,0,0,0,.62-2.75c0-4.08-1.85-5.52-4.73-6.28v-.4a6,6,0,0,1,3.43-1c2.09,0,4.29,2.28,4.29,5.6a8.7,8.7,0,0,1-2.34,6.07,8.32,8.32,0,0,1,3,6.1Zm-11.15-3a7.84,7.84,0,0,0,5-1.69,55,55,0,0,1-10.18-8.74,4.18,4.18,0,0,0-2,3.82C154.08,61.75,157,64.31,161.31,64.31Zm-2.64-13.58c1.08-.86,3-2.2,3-4.69,0-1.81-.72-3.47-2.24-3.47s-2.45,1.56-2.45,3.18A8.69,8.69,0,0,0,158.67,50.73Z" transform="translate(-85.33 -10.14)"/><path class="cls-1" d="M173.44,69.66c3.64-1.77,3.68-5.2,3.68-11.67V47.05c0-3.57,0-4-1.7-4.26l-.86-.11v-.94h9.82v.94l-.87.11c-1.7.25-1.7.69-1.7,4.26V58.79c0,7.8-1.19,10.14-8.16,11.52Z" transform="translate(-85.33 -10.14)"/><path class="cls-1" d="M200.19,65.22a6.06,6.06,0,0,1-3.1.9,3.5,3.5,0,0,1-3.54-1.84,8,8,0,0,1-5,1.84c-2.82,0-4.73-1.63-4.73-3.94,0-4.55,6.35-5.78,9.35-6.57v-.87c0-2.13-.58-4-3.14-4-2.78,0-3.83,2.49-4.3,3.57h-.36a5.3,5.3,0,0,1-1-1.84,10.43,10.43,0,0,1,7.76-3.83c4.55,0,5.35,2.35,5.35,6.47v4.44c0,2.6,0,5.27,2.31,5.27a1,1,0,0,0,.29,0Zm-7-7.95c-.14,0-.25,0-.4,0-2.05,0-4.33,1.09-4.33,3.76a2.74,2.74,0,0,0,2.67,3,3.38,3.38,0,0,0,2.21-.86,19.51,19.51,0,0,1-.15-1.95Z" transform="translate(-85.33 -10.14)"/><path class="cls-1" d="M214.82,64.28a10.45,10.45,0,0,1-6.5,1.84c-3.94,0-8.45-2.71-8.45-8a9.33,9.33,0,0,1,9.49-9.54c2.57,0,4,.51,4.92,1.2a5.35,5.35,0,0,1-1.41,3h-.33a5.51,5.51,0,0,0-4.15-2.35c-2.31,0-3.9,2.2-3.9,5.85,0,5.38,3.1,7.76,6.72,7.76a11.5,11.5,0,0,0,3.28-.61Z" transform="translate(-85.33 -10.14)"/><path class="cls-1" d="M214.42,57.56c0-6.21,4.62-9,9.17-9,4.73,0,9,2.6,9,8.42,0,6.43-4.62,9.1-9.24,9.1S214.42,63.63,214.42,57.56Zm9.39,7.19c3.36,0,4.15-4.12,4.15-7,0-3.8-1.08-7.8-4.73-7.8C219.94,50,219,53.8,219,56.8,219,60.59,220.34,64.75,223.81,64.75Z" transform="translate(-85.33 -10.14)"/><path class="cls-1" d="M239.12,49.69a10.35,10.35,0,0,1,4.36-1.09c4.23,0,8.31,2.57,8.31,8.06,0,6.53-5.09,9.46-9.89,9.46a15.52,15.52,0,0,1-5.2-.9l-.62.9-1.3.14V45.86c0-3.18,0-4.59-1.23-4.59-.43,0-.86.08-1,.08v-.94a29.92,29.92,0,0,1,6.58-.83Zm0,13.65a4.3,4.3,0,0,0,3.28,1.41c3.47,0,4.77-3,4.77-6.58,0-4.76-3.4-7.47-6.54-7.47a3.63,3.63,0,0,0-1.51.29Z" transform="translate(-85.33 -10.14)"/><path class="cls-1" d="M262.69,54.09c-.1-1.19-.9-4.11-3.57-4.11a2.12,2.12,0,0,0-2,2.24c0,3.79,8.12,3.17,8.12,8.7,0,2.78-2,5.2-6.86,5.2a10.69,10.69,0,0,1-5-1.12,19.81,19.81,0,0,1-.65-5.13h1.44c.22,2,1.84,4.88,4.55,4.88a2.28,2.28,0,0,0,2.39-2.39c0-4.29-8.13-3.25-8.13-9,0-.28,0-4.73,6.43-4.73a9.39,9.39,0,0,1,4.33,1,18.43,18.43,0,0,1,.4,4.47Z" transform="translate(-85.33 -10.14)"/><path class="cls-1" d="M269.52,65.09l.41,0c.81-.16.81-.09.81-2.06V56.65c0-1.68,0-1.88-.81-2l-.41-.06v-.44h4.69v.44l-.41.06c-.81.12-.81.32-.81,2v8a7,7,0,0,0,1.58.24c2.44,0,2.45-1.17,3-2.6l.62.12a12.82,12.82,0,0,1-.61,3.14h-8Z" transform="translate(-85.33 -10.14)"/><path class="cls-1" d="M279.3,65.09l.42,0c.81-.16.81-.09.81-2.06V56.65c0-1.68,0-1.88-.81-2l-.42-.06v-.44H284v.44l-.42.06c-.81.12-.81.32-.81,2v8a7.11,7.11,0,0,0,1.59.24c2.43,0,2.45-1.17,2.95-2.6l.62.12a12.35,12.35,0,0,1-.6,3.14h-8Z" transform="translate(-85.33 -10.14)"/><path class="cls-1" d="M289.16,65.09l.41,0c.81-.09.81-.33.81-2V56.7c0-1.69,0-2-.81-2.05l-.41-.06v-.44h4.59c2.12,0,4.61.38,4.61,3.05,0,2.92-2.83,3.66-4.65,3.71v-.65a2.74,2.74,0,0,0-.24-5.46,3.34,3.34,0,0,0-.84.12V63c0,1.71,0,2,.82,2l.66,0v.45h-4.95Z" transform="translate(-85.33 -10.14)"/></svg>